<?xml version="1.0" encoding="iso-8859-1"?>
<!-- Generator: Adobe Illustrator 26.0.1, SVG Export Plug-In . SVG Version: 6.00 Build 0)  -->
<svg version="1.1" id="Layer_1" xmlns="http://www.w3.org/2000/svg" xmlns:xlink="http://www.w3.org/1999/xlink" x="0px" y="0px"
	 viewBox="0 0 500 500" style="enable-background:new 0 0 500 500;" xml:space="preserve">
<g id="watermark_1_">
	<g>
		<g id="watermark" style="opacity:0.61;">
			<g>
				<g>
					<g>
						<g>
							<polygon style="fill:#FFFFFF;" points="213.765,461.172 208.204,474.017 205.268,474.017 199.726,461.172 202.938,461.172 
								206.846,470.347 210.81,461.172 							"/>
						</g>
						<g>
							<path style="fill:#FFFFFF;" d="M223.507,469.741h-7.469c0.275,1.23,1.321,1.982,2.826,1.982c1.046,0,1.798-0.312,2.477-0.954
								l1.523,1.651c-0.917,1.046-2.294,1.597-4.074,1.597c-3.413,0-5.634-2.147-5.634-5.083c0-2.954,2.257-5.083,5.267-5.083
								c2.899,0,5.138,1.945,5.138,5.12C223.562,469.191,223.526,469.503,223.507,469.741 M216.002,468.071h4.863
								c-0.202-1.248-1.138-2.055-2.422-2.055C217.139,466.016,216.204,466.805,216.002,468.071"/>
						</g>
						<g>
							<path style="fill:#FFFFFF;" d="M224.735,468.934c0-2.973,2.294-5.083,5.505-5.083c2.074,0,3.707,0.899,4.423,2.514
								l-2.22,1.193c-0.532-0.936-1.321-1.358-2.221-1.358c-1.45,0-2.587,1.009-2.587,2.734c0,1.725,1.138,2.734,2.587,2.734
								c0.899,0,1.688-0.404,2.221-1.358l2.22,1.211c-0.716,1.578-2.349,2.495-4.423,2.495
								C227.029,474.017,224.735,471.907,224.735,468.934"/>
						</g>
						<g>
							<path style="fill:#FFFFFF;" d="M242.828,473.393c-0.587,0.422-1.45,0.624-2.331,0.624c-2.33,0-3.688-1.193-3.688-3.542
								v-4.055h-1.523v-2.202h1.523v-2.404h2.863v2.404h2.459v2.202h-2.459v4.019c0,0.844,0.458,1.303,1.229,1.303
								c0.422,0,0.844-0.128,1.156-0.367L242.828,473.393z"/>
						</g>
					</g>
					<g>
						<path style="fill:#FFFFFF;" d="M262.474,463.997v2.643c-0.238-0.018-0.422-0.037-0.642-0.037
							c-1.578,0-2.624,0.862-2.624,2.753v4.661h-2.863v-9.873h2.734v1.303C259.776,464.493,260.951,463.997,262.474,463.997"/>
					</g>
					<g>
						<path style="fill:#FFFFFF;" d="M263.299,472.53l1.009-2.239c1.083,0.789,2.697,1.339,4.239,1.339
							c1.762,0,2.477-0.587,2.477-1.376c0-2.404-7.469-0.752-7.469-5.524c0-2.184,1.762-4,5.413-4c1.615,0,3.267,0.385,4.459,1.138
							l-0.918,2.257c-1.193-0.679-2.422-1.009-3.56-1.009c-1.761,0-2.44,0.66-2.44,1.468c0,2.367,7.468,0.734,7.468,5.45
							c0,2.147-1.78,3.982-5.45,3.982C266.492,474.017,264.437,473.411,263.299,472.53"/>
					</g>
					<g>
						<path style="fill:#FFFFFF;" d="M285.428,469.741h-7.469c0.275,1.23,1.321,1.982,2.826,1.982c1.046,0,1.798-0.312,2.477-0.954
							l1.523,1.651c-0.918,1.046-2.294,1.597-4.074,1.597c-3.413,0-5.634-2.147-5.634-5.083c0-2.954,2.257-5.083,5.267-5.083
							c2.9,0,5.138,1.945,5.138,5.12C285.484,469.191,285.447,469.503,285.428,469.741 M277.923,468.071h4.863
							c-0.202-1.248-1.138-2.055-2.422-2.055C279.061,466.016,278.125,466.805,277.923,468.071"/>
					</g>
					<g>
						<path style="fill:#FFFFFF;" d="M297.007,469.741h-7.469c0.275,1.23,1.321,1.982,2.826,1.982c1.046,0,1.798-0.312,2.477-0.954
							l1.523,1.651c-0.918,1.046-2.294,1.597-4.074,1.597c-3.413,0-5.634-2.147-5.634-5.083c0-2.954,2.257-5.083,5.267-5.083
							c2.899,0,5.138,1.945,5.138,5.12C297.062,469.191,297.025,469.503,297.007,469.741 M289.501,468.071h4.863
							c-0.202-1.248-1.138-2.055-2.422-2.055C290.639,466.016,289.703,466.805,289.501,468.071"/>
					</g>
					<g>
						<polygon style="fill:#FFFFFF;" points="303.208,470.145 301.831,471.503 301.831,474.017 298.969,474.017 298.969,460.401 
							301.831,460.401 301.831,468.108 306.016,464.144 309.429,464.144 305.318,468.328 309.796,474.017 306.327,474.017 						"/>
					</g>
					<g>
						<path style="fill:#FFFFFF;" d="M256.601,475.359L256.601,475.359l-2.86-2.86c-0.435,0.508-0.953,0.943-1.534,1.284
							c-0.092,0.069-0.186,0.136-0.283,0.199l3.027,3.027c0.456,0.456,1.195,0.456,1.65,0
							C257.057,476.554,257.057,475.815,256.601,475.359"/>
					</g>
					<g>
						<path style="fill:#FFFFFF;" d="M249.984,463.244c0.221-0.173,0.495-0.281,0.797-0.281c0.042,0,0.083,0.002,0.124,0.006
							c-0.214-0.156-0.478-0.249-0.764-0.249c-0.395,0-0.744,0.18-0.981,0.458c-0.051,0-0.1,0.006-0.151,0.008
							c0.039-0.077,0.064-0.162,0.064-0.255c0-0.234-0.143-0.434-0.346-0.519c0.087,0.126,0.138,0.279,0.138,0.445
							c0,0.122-0.031,0.237-0.081,0.341c-2.811,0.201-5.03,2.539-5.03,5.4c0,2.993,2.426,5.42,5.42,5.42
							c2.993,0,5.42-2.426,5.42-5.42C254.595,465.879,252.593,463.635,249.984,463.244 M247.983,464.656
							c0.435,0,0.844,0.112,1.199,0.309c0.374-0.245,0.82-0.387,1.299-0.387c0.711,0,1.348,0.312,1.784,0.806
							c-0.435-0.379-1.004-0.61-1.627-0.61c-0.449,0-0.87,0.12-1.234,0.329c-0.079,0.046-0.156,0.096-0.229,0.15
							c-0.065-0.048-0.133-0.093-0.204-0.134c-0.369-0.219-0.8-0.344-1.26-0.344c-0.3,0-0.588,0.054-0.854,0.152
							C247.196,464.754,247.578,464.656,247.983,464.656 M251.772,469.098c0.115,0.305,0.181,0.634,0.181,0.979
							c0,1.534-1.244,2.777-2.778,2.777c-1.534,0-2.777-1.243-2.777-2.777c0-0.345,0.066-0.674,0.181-0.979
							c-0.62-0.382-1.035-1.064-1.035-1.846c0-1.197,0.971-2.168,2.168-2.168c0.565,0,1.078,0.218,1.463,0.572
							c0.386-0.354,0.899-0.572,1.464-0.572c1.197,0,2.168,0.971,2.168,2.168C252.807,468.034,252.392,468.716,251.772,469.098"/>
					</g>
					<g>
						<path style="fill:#FFFFFF;" d="M251.666,467.061c0,0.497-0.404,0.901-0.901,0.901c-0.497,0-0.901-0.404-0.901-0.901
							s0.404-0.901,0.901-0.901c0.101,0,0.197,0.017,0.287,0.047c-0.03,0.062-0.045,0.132-0.045,0.204
							c0,0.273,0.221,0.494,0.494,0.494c0.05,0,0.099-0.008,0.146-0.022C251.66,466.941,251.666,467,251.666,467.061"/>
					</g>
					<g>
						<path style="fill:#FFFFFF;" d="M248.255,467.061c0,0.376-0.305,0.681-0.681,0.681c-0.376,0-0.681-0.305-0.681-0.681
							s0.305-0.681,0.681-0.681c0.076,0,0.149,0.013,0.217,0.035c-0.023,0.047-0.034,0.1-0.034,0.155
							c0,0.206,0.167,0.374,0.374,0.374c0.038,0,0.075-0.006,0.11-0.017C248.25,466.97,248.255,467.015,248.255,467.061"/>
					</g>
					<g>
						<g>
							<g>
								<rect x="242.908" y="467.83" style="fill:#FFFFFF;" width="0.616" height="0.616"/>
							</g>
							<g>
								<rect x="254.827" y="467.83" style="fill:#FFFFFF;" width="0.616" height="0.616"/>
							</g>
							<g>
								<path style="fill:#FFFFFF;" d="M255.205,468.082h-0.14c0-3.248-2.642-5.89-5.89-5.89c-3.248,0-5.89,2.642-5.89,5.89h-0.14
									c0-1.611,0.627-3.125,1.766-4.264c1.139-1.139,2.653-1.766,4.264-1.766c1.611,0,3.125,0.627,4.264,1.766
									C254.578,464.957,255.205,466.471,255.205,468.082"/>
							</g>
						</g>
						<g>
							<rect x="248.868" y="461.814" style="fill:#FFFFFF;" width="0.616" height="0.616"/>
						</g>
						<g>
							<rect x="244.95" y="462.052" style="fill:#FFFFFF;" width="8.45" height="0.14"/>
						</g>
						<g>
							<path style="fill:#FFFFFF;" d="M245.174,462.15c0,0.108-0.088,0.196-0.196,0.196c-0.108,0-0.196-0.088-0.196-0.196
								c0-0.108,0.088-0.196,0.196-0.196C245.086,461.954,245.174,462.042,245.174,462.15"/>
						</g>
						<g>
							<path style="fill:#FFFFFF;" d="M253.596,462.15c0,0.108-0.088,0.196-0.196,0.196c-0.108,0-0.196-0.088-0.196-0.196
								c0-0.108,0.088-0.196,0.196-0.196C253.509,461.954,253.596,462.042,253.596,462.15"/>
						</g>
					</g>
				</g>
				<g>
					<path style="fill:#FFFFFF;" d="M314.356,473.409c0,1.559-2.364,1.559-2.364,0C311.993,471.851,314.356,471.851,314.356,473.409
						z"/>
				</g>
				<g>
					<g>
						<g>
							<path style="fill:#FFFFFF;" d="M161.739,466.549l1.772,6.088l1.855-6.088h2.215l-2.823,8.14h-2.33l-0.837-2.396l-0.722-2.708
								l-0.722,2.708l-0.837,2.396h-2.33l-2.839-8.14h2.231l1.855,6.088l1.756-6.088H161.739z"/>
						</g>
						<g>
							<path style="fill:#FFFFFF;" d="M176.713,466.549l1.772,6.088l1.855-6.088h2.215l-2.823,8.14h-2.33l-0.837-2.396l-0.722-2.708
								l-0.722,2.708l-0.837,2.396h-2.33l-2.839-8.14h2.231l1.855,6.088l1.756-6.088H176.713z"/>
						</g>
						<g>
							<path style="fill:#FFFFFF;" d="M191.687,466.549l1.772,6.088l1.855-6.088h2.215l-2.823,8.14h-2.33l-0.837-2.396l-0.722-2.708
								l-0.722,2.708l-0.837,2.396h-2.33l-2.839-8.14h2.231l1.855,6.088l1.756-6.088H191.687z"/>
						</g>
					</g>
					<g>
						<path style="fill:#FFFFFF;" d="M200.908,473.52c0,1.559-2.364,1.559-2.364,0C198.545,471.962,200.908,471.962,200.908,473.52z
							"/>
					</g>
					<g>
						<path style="fill:#FFFFFF;" d="M322.71,473.409c-0.935,0.919-1.919,1.28-3.117,1.28c-2.346,0-4.3-1.411-4.3-4.282
							s1.953-4.284,4.3-4.284c1.149,0,2.035,0.329,2.921,1.199l-1.264,1.329c-0.476-0.428-1.066-0.64-1.623-0.64
							c-1.346,0-2.33,0.985-2.33,2.396c0,1.542,1.05,2.362,2.297,2.362c0.64,0,1.28-0.18,1.772-0.672L322.71,473.409z"/>
					</g>
					<g>
						<path style="fill:#FFFFFF;" d="M331.805,470.472c0,2.33-1.591,4.217-4.217,4.217c-2.626,0-4.201-1.887-4.201-4.217
							c0-2.314,1.609-4.217,4.185-4.217C330.149,466.255,331.805,468.158,331.805,470.472z M325.389,470.472
							c0,1.231,0.739,2.38,2.199,2.38c1.46,0,2.199-1.149,2.199-2.38c0-1.215-0.854-2.396-2.199-2.396
							C326.144,468.077,325.389,469.258,325.389,470.472z"/>
					</g>
					<g>
						<path style="fill:#FFFFFF;" d="M338.572,474.689v-4.332c0-1.068-0.559-2.035-1.658-2.035c-1.082,0-1.722,0.967-1.722,2.035
							v4.332h-2.003v-8.107h1.855l0.148,0.985c0.426-0.82,1.362-1.116,2.133-1.116c0.969,0,1.937,0.394,2.396,1.51
							c0.723-1.149,1.658-1.478,2.708-1.478c2.297,0,3.43,1.412,3.43,3.84v4.365h-2.003v-4.365c0-1.066-0.442-1.97-1.526-1.97
							c-1.082,0-1.756,0.935-1.756,2.003v4.332H338.572z"/>
					</g>
				</g>
			</g>
		</g>
		<g style="opacity:0.61;">
			<g>
				<g>
					<path style="fill:#FFFFFF;" d="M345.988,431.299c-0.006-1.224-0.959-2.121-2.189-2.14c-0.924-0.014-0.832,0.12-0.834-0.867
						c-0.003-1.097-0.007-2.194,0.003-3.292c0.003-0.379-0.112-0.691-0.362-0.976c-2.342-2.668-4.678-5.342-7.019-8.011
						c-0.12-0.137-0.275-0.244-0.414-0.366c-6.214,0-12.427,0-18.641,0c-0.794,0.293-1.14,0.868-1.138,1.709
						c0.01,3.748,0.004,7.496,0.004,11.243c0,0.556-0.003,0.589-0.55,0.551c-1.497-0.102-2.516,0.986-2.497,2.492
						c0.044,3.476,0.013,6.953,0.014,10.429c0.001,1.58,0.867,2.443,2.45,2.449c0.582,0.002,0.582,0.002,0.582,0.6
						c0,2.219-0.001,4.438,0.001,6.657c0.001,1.192,0.58,1.771,1.768,1.771c8.013,0.001,16.027,0.001,24.04,0
						c1.168,0,1.755-0.583,1.757-1.745c0.002-2.256,0-4.512,0.001-6.768c0-0.512,0.002-0.511,0.52-0.515
						c0.271-0.002,0.541,0.008,0.809-0.058c0.996-0.246,1.69-1.044,1.694-2.069C346.003,438.696,346.005,434.997,345.988,431.299z
						 M317.537,417.162c5.337,0,10.674,0,16.01,0c0.548,0,0.554,0.007,0.554,0.561c0.001,2.243-0.001,4.486,0.001,6.73
						c0.001,0.811,0.249,1.059,1.06,1.059c1.91,0.001,3.821,0,5.731,0.001c0.458,0,0.479,0.021,0.481,0.483
						c0.003,0.887,0.002,1.775,0,2.662c-0.001,0.477-0.024,0.498-0.504,0.499c-3.895,0.001-7.79,0-11.684,0
						c-3.882,0-7.765,0-11.647,0c-0.55,0-0.552-0.001-0.552-0.561c-0.001-3.624-0.001-7.247,0-10.871
						C316.987,417.166,316.991,417.162,317.537,417.162z M340.822,451.579c-3.883,0.001-7.766,0-11.65,0c-3.871,0-7.742,0-11.613,0
						c-0.572,0-0.574-0.002-0.574-0.579c-0.001-1.997-0.001-3.994,0.001-5.991c0-0.464,0.023-0.486,0.478-0.487
						c7.803-0.001,15.607-0.001,23.41,0c0.478,0,0.499,0.02,0.499,0.503c0.002,1.997,0.001,3.994,0,5.991
						C341.375,451.574,341.37,451.579,340.822,451.579z"/>
				</g>
				<g>
					<g>
						<rect x="327.418" y="417.053" style="fill:#FFFFFF;" width="1.757" height="1.054"/>
					</g>
					<g>
						<rect x="325.662" y="418.107" style="fill:#FFFFFF;" width="1.757" height="1.054"/>
					</g>
					<g>
						<rect x="327.418" y="419.161" style="fill:#FFFFFF;" width="1.757" height="1.054"/>
					</g>
					<g>
						<rect x="325.662" y="420.215" style="fill:#FFFFFF;" width="1.757" height="1.054"/>
					</g>
					<g>
						<rect x="327.418" y="421.269" style="fill:#FFFFFF;" width="1.757" height="1.054"/>
					</g>
					<g>
						<rect x="325.662" y="422.323" style="fill:#FFFFFF;" width="1.757" height="1.054"/>
					</g>
					<g>
						<rect x="327.418" y="423.378" style="fill:#FFFFFF;" width="1.757" height="1.054"/>
					</g>
					<g>
						<rect x="325.662" y="424.432" style="fill:#FFFFFF;" width="1.757" height="1.054"/>
					</g>
					<g>
						<rect x="327.418" y="425.486" style="fill:#FFFFFF;" width="1.757" height="1.054"/>
					</g>
					<g>
						<rect x="325.662" y="426.54" style="fill:#FFFFFF;" width="1.757" height="1.054"/>
					</g>
					<g>
						<rect x="327.418" y="427.594" style="fill:#FFFFFF;" width="1.757" height="1.054"/>
					</g>
					<g>
						<rect x="325.662" y="428.648" style="fill:#FFFFFF;" width="1.757" height="1.054"/>
					</g>
				</g>
			</g>
			<g>
				<path style="fill:#FFFFFF;" d="M187.637,431.299c-0.006-1.224-0.959-2.121-2.189-2.14c-0.924-0.014-0.832,0.12-0.834-0.867
					c-0.003-1.097-0.007-2.194,0.003-3.292c0.003-0.379-0.112-0.691-0.362-0.976c-2.342-2.668-4.678-5.342-7.019-8.011
					c-0.12-0.137-0.275-0.244-0.414-0.366c-6.214,0-12.427,0-18.641,0c-0.794,0.293-1.14,0.868-1.138,1.709
					c0.01,3.748,0.004,7.496,0.004,11.243c0,0.556-0.003,0.589-0.55,0.551c-1.497-0.102-2.516,0.986-2.497,2.492
					c0.044,3.476,0.013,6.953,0.014,10.429c0.001,1.58,0.867,2.443,2.45,2.449c0.582,0.002,0.582,0.002,0.582,0.6
					c0,2.219-0.001,4.438,0.001,6.657c0.001,1.192,0.58,1.771,1.768,1.771c8.013,0.001,16.027,0.001,24.04,0
					c1.168,0,1.755-0.583,1.757-1.745c0.002-2.256,0-4.512,0.001-6.768c0-0.512,0.002-0.511,0.52-0.515
					c0.271-0.002,0.541,0.008,0.809-0.058c0.996-0.246,1.69-1.044,1.694-2.069C187.652,438.696,187.655,434.997,187.637,431.299z
					 M159.187,417.162c5.337,0,10.674,0,16.01,0c0.548,0,0.554,0.007,0.554,0.561c0.001,2.243-0.001,4.486,0.001,6.73
					c0.001,0.811,0.249,1.059,1.06,1.059c1.91,0.001,3.821,0,5.731,0.001c0.458,0,0.479,0.021,0.481,0.483
					c0.003,0.887,0.002,1.775,0,2.662c-0.001,0.477-0.024,0.498-0.504,0.499c-3.895,0.001-7.79,0-11.684,0
					c-3.882,0-7.765,0-11.647,0c-0.55,0-0.552-0.001-0.552-0.561c-0.001-3.624-0.001-7.247,0-10.871
					C158.636,417.166,158.64,417.162,159.187,417.162z M182.472,451.579c-3.883,0.001-7.766,0-11.65,0c-3.871,0-7.742,0-11.613,0
					c-0.572,0-0.574-0.002-0.574-0.579c-0.001-1.997-0.001-3.994,0.001-5.991c0-0.464,0.023-0.486,0.478-0.487
					c7.803-0.001,15.607-0.001,23.41,0c0.478,0,0.499,0.02,0.499,0.503c0.002,1.997,0.001,3.994,0,5.991
					C183.024,451.574,183.019,451.579,182.472,451.579z"/>
			</g>
			<g>
				<path style="fill:#FFFFFF;" d="M159.779,440.669v-7.897h2.779c0.375,0,0.726,0.061,1.053,0.182
					c0.327,0.121,0.612,0.292,0.855,0.513c0.242,0.221,0.434,0.483,0.573,0.789c0.14,0.305,0.21,0.642,0.21,1.009
					c0,0.375-0.07,0.715-0.21,1.02c-0.14,0.305-0.331,0.568-0.573,0.789c-0.243,0.221-0.528,0.392-0.855,0.513
					c-0.327,0.121-0.678,0.182-1.053,0.182h-1.29v2.901H159.779z M162.58,436.356c0.39,0,0.684-0.111,0.882-0.331
					c0.199-0.22,0.298-0.474,0.298-0.761c0-0.14-0.024-0.276-0.072-0.408c-0.048-0.132-0.121-0.248-0.221-0.347
					c-0.099-0.099-0.223-0.178-0.37-0.237c-0.147-0.059-0.32-0.089-0.518-0.089h-1.312v2.173H162.58z"/>
				<path style="fill:#FFFFFF;" d="M166.308,432.771h1.731l3.177,5.294h0.088l-0.088-1.522v-3.772h1.478v7.897h-1.566l-3.353-5.592
					h-0.088l0.088,1.522v4.07h-1.467V432.771z"/>
				<path style="fill:#FFFFFF;" d="M177.922,436.334h3.872c0.022,0.089,0.04,0.195,0.055,0.32c0.014,0.125,0.022,0.25,0.022,0.375
					c0,0.507-0.077,0.985-0.231,1.434c-0.154,0.449-0.397,0.849-0.728,1.202c-0.353,0.375-0.776,0.666-1.268,0.871
					c-0.493,0.206-1.055,0.309-1.688,0.309c-0.574,0-1.114-0.103-1.622-0.309c-0.507-0.206-0.948-0.492-1.323-0.86
					c-0.375-0.367-0.673-0.803-0.894-1.307c-0.221-0.504-0.331-1.053-0.331-1.649c0-0.595,0.11-1.145,0.331-1.649
					c0.221-0.504,0.518-0.939,0.894-1.307c0.375-0.367,0.816-0.654,1.323-0.86c0.507-0.206,1.048-0.309,1.622-0.309
					c0.64,0,1.211,0.11,1.715,0.331c0.504,0.221,0.935,0.526,1.296,0.915l-1.025,1.004c-0.258-0.272-0.544-0.48-0.861-0.623
					c-0.316-0.143-0.695-0.215-1.136-0.215c-0.361,0-0.703,0.065-1.026,0.193c-0.324,0.129-0.607,0.311-0.85,0.546
					c-0.242,0.235-0.436,0.52-0.579,0.855c-0.143,0.335-0.215,0.708-0.215,1.119c0,0.412,0.072,0.785,0.215,1.12
					c0.143,0.335,0.338,0.62,0.584,0.855c0.246,0.235,0.531,0.418,0.855,0.546c0.323,0.129,0.669,0.193,1.037,0.193
					c0.419,0,0.773-0.061,1.064-0.182c0.29-0.121,0.538-0.278,0.744-0.469c0.148-0.132,0.275-0.3,0.381-0.502
					c0.106-0.202,0.189-0.428,0.248-0.678h-2.482V436.334z"/>
			</g>
			<g>
				<path style="fill:#FFFFFF;" d="M224.019,431.299c-0.006-1.224-0.959-2.121-2.189-2.14c-0.924-0.014-0.832,0.12-0.834-0.867
					c-0.003-1.097-0.007-2.194,0.003-3.292c0.003-0.379-0.112-0.691-0.362-0.976c-2.342-2.668-4.678-5.342-7.019-8.011
					c-0.12-0.137-0.275-0.244-0.414-0.366c-6.214,0-12.427,0-18.641,0c-0.794,0.293-1.14,0.868-1.138,1.709
					c0.01,3.748,0.004,7.496,0.004,11.243c0,0.556-0.003,0.589-0.55,0.551c-1.497-0.102-2.516,0.986-2.497,2.492
					c0.044,3.476,0.013,6.953,0.014,10.429c0.001,1.58,0.867,2.443,2.45,2.449c0.582,0.002,0.582,0.002,0.582,0.6
					c0,2.219-0.001,4.438,0.001,6.657c0.001,1.192,0.58,1.771,1.768,1.771c8.013,0.001,16.027,0.001,24.04,0
					c1.168,0,1.755-0.583,1.757-1.745c0.002-2.256,0-4.512,0.001-6.768c0-0.512,0.002-0.511,0.52-0.515
					c0.271-0.002,0.541,0.008,0.809-0.058c0.997-0.246,1.69-1.044,1.694-2.069C224.034,438.696,224.036,434.997,224.019,431.299z
					 M195.568,417.162c5.337,0,10.674,0,16.01,0c0.548,0,0.554,0.007,0.554,0.561c0.001,2.243-0.001,4.486,0.001,6.73
					c0.001,0.811,0.249,1.059,1.06,1.059c1.91,0.001,3.821,0,5.731,0.001c0.458,0,0.479,0.021,0.481,0.483
					c0.003,0.887,0.002,1.775,0,2.662c-0.001,0.477-0.024,0.498-0.504,0.499c-3.895,0.001-7.79,0-11.684,0
					c-3.882,0-7.765,0-11.647,0c-0.55,0-0.552-0.001-0.552-0.561c-0.001-3.624-0.001-7.247,0-10.871
					C195.018,417.166,195.022,417.162,195.568,417.162z M218.854,451.579c-3.883,0.001-7.766,0-11.65,0c-3.871,0-7.742,0-11.613,0
					c-0.572,0-0.574-0.002-0.574-0.579c-0.001-1.997-0.001-3.994,0.001-5.991c0-0.464,0.023-0.486,0.478-0.487
					c7.803-0.001,15.607-0.001,23.41,0c0.478,0,0.499,0.02,0.499,0.503c0.002,1.997,0.001,3.994,0,5.991
					C219.406,451.574,219.401,451.579,218.854,451.579z"/>
			</g>
			<g>
				<path style="fill:#FFFFFF;" d="M205.111,432.771h1.699l2.967,7.897h-1.644l-0.651-1.886h-3.044l-0.651,1.886h-1.643
					L205.111,432.771z M206.997,437.415l-0.706-1.974l-0.287-0.96h-0.088l-0.287,0.96l-0.706,1.974H206.997z"/>
				<path style="fill:#FFFFFF;" d="M211.331,434.536c-0.125,0-0.245-0.024-0.359-0.072c-0.114-0.048-0.213-0.114-0.298-0.199
					c-0.084-0.084-0.151-0.182-0.198-0.292c-0.048-0.11-0.072-0.232-0.072-0.364s0.024-0.254,0.072-0.364
					c0.048-0.11,0.114-0.208,0.198-0.292c0.084-0.084,0.184-0.151,0.298-0.198c0.114-0.048,0.233-0.072,0.359-0.072
					c0.257,0,0.478,0.09,0.662,0.27c0.184,0.181,0.276,0.399,0.276,0.656s-0.092,0.476-0.276,0.656
					C211.809,434.446,211.589,434.536,211.331,434.536z M210.615,440.669v-5.404h1.445v5.404H210.615z"/>
			</g>
			<g>
				<path style="fill:#FFFFFF;" d="M261.044,431.299c-0.006-1.224-0.959-2.121-2.189-2.14c-0.924-0.014-0.832,0.12-0.834-0.867
					c-0.003-1.097-0.007-2.194,0.003-3.292c0.003-0.379-0.112-0.691-0.362-0.976c-2.342-2.668-4.678-5.342-7.019-8.011
					c-0.12-0.137-0.275-0.244-0.414-0.366c-6.214,0-12.427,0-18.641,0c-0.794,0.293-1.14,0.868-1.138,1.709
					c0.01,3.748,0.004,7.496,0.004,11.243c0,0.556-0.003,0.589-0.55,0.551c-1.497-0.102-2.516,0.986-2.497,2.492
					c0.044,3.476,0.013,6.953,0.014,10.429c0.001,1.58,0.867,2.443,2.45,2.449c0.582,0.002,0.582,0.002,0.582,0.6
					c0,2.219-0.001,4.438,0.001,6.657c0.001,1.192,0.58,1.771,1.768,1.771c8.013,0.001,16.027,0.001,24.04,0
					c1.168,0,1.755-0.583,1.757-1.745c0.002-2.256,0-4.512,0.001-6.768c0-0.512,0.002-0.511,0.52-0.515
					c0.271-0.002,0.541,0.008,0.809-0.058c0.996-0.246,1.69-1.044,1.694-2.069C261.059,438.696,261.061,434.997,261.044,431.299z
					 M232.593,417.162c5.337,0,10.674,0,16.01,0c0.548,0,0.554,0.007,0.554,0.561c0.001,2.243-0.001,4.486,0.001,6.73
					c0.001,0.811,0.249,1.059,1.06,1.059c1.91,0.001,3.821,0,5.731,0.001c0.458,0,0.479,0.021,0.481,0.483
					c0.003,0.887,0.002,1.775,0,2.662c-0.001,0.477-0.024,0.498-0.504,0.499c-3.895,0.001-7.79,0-11.684,0
					c-3.882,0-7.765,0-11.647,0c-0.55,0-0.552-0.001-0.552-0.561c-0.001-3.624-0.001-7.247,0-10.871
					C232.042,417.166,232.047,417.162,232.593,417.162z M255.878,451.579c-3.883,0.001-7.766,0-11.65,0c-3.871,0-7.742,0-11.613,0
					c-0.572,0-0.574-0.002-0.574-0.579c-0.001-1.997-0.001-3.994,0.001-5.991c0-0.464,0.023-0.486,0.478-0.487
					c7.803-0.001,15.607-0.001,23.41,0c0.478,0,0.499,0.02,0.499,0.503c0.002,1.997,0.001,3.994,0,5.991
					C256.431,451.574,256.426,451.579,255.878,451.579z"/>
			</g>
			<g>
				<path style="fill:#FFFFFF;" d="M236.361,440.845c-0.338,0-0.662-0.048-0.971-0.143c-0.309-0.095-0.592-0.239-0.849-0.43
					c-0.257-0.191-0.481-0.425-0.673-0.7c-0.191-0.276-0.342-0.597-0.452-0.965l1.401-0.551c0.103,0.397,0.283,0.726,0.54,0.987
					c0.257,0.261,0.596,0.392,1.015,0.392c0.154,0,0.303-0.02,0.447-0.061c0.143-0.04,0.272-0.099,0.386-0.176
					s0.204-0.175,0.27-0.292c0.066-0.118,0.099-0.254,0.099-0.408c0-0.147-0.026-0.279-0.077-0.397
					c-0.051-0.117-0.138-0.227-0.259-0.331c-0.121-0.103-0.28-0.202-0.475-0.298c-0.195-0.095-0.435-0.195-0.722-0.298l-0.485-0.176
					c-0.213-0.073-0.429-0.173-0.645-0.298c-0.217-0.125-0.413-0.276-0.59-0.452c-0.177-0.176-0.322-0.384-0.436-0.623
					c-0.114-0.239-0.171-0.509-0.171-0.81c0-0.309,0.06-0.597,0.182-0.866c0.121-0.268,0.294-0.503,0.518-0.706
					c0.224-0.202,0.492-0.36,0.805-0.474s0.66-0.171,1.042-0.171c0.397,0,0.74,0.053,1.031,0.16
					c0.291,0.107,0.537,0.243,0.739,0.408c0.202,0.165,0.366,0.348,0.491,0.546c0.125,0.199,0.217,0.386,0.276,0.563l-1.312,0.551
					c-0.074-0.221-0.208-0.419-0.402-0.596c-0.195-0.176-0.462-0.265-0.8-0.265c-0.324,0-0.592,0.075-0.805,0.226
					c-0.213,0.151-0.32,0.348-0.32,0.59c0,0.235,0.103,0.436,0.309,0.601c0.206,0.165,0.533,0.325,0.982,0.48l0.497,0.165
					c0.316,0.111,0.605,0.237,0.866,0.381c0.261,0.143,0.485,0.314,0.673,0.513c0.187,0.199,0.331,0.425,0.43,0.678
					c0.1,0.254,0.149,0.546,0.149,0.877c0,0.412-0.083,0.767-0.248,1.064c-0.165,0.298-0.377,0.542-0.634,0.734
					c-0.258,0.191-0.548,0.335-0.872,0.43C236.986,440.797,236.67,440.845,236.361,440.845z"/>
				<path style="fill:#FFFFFF;" d="M239.516,432.771h1.61l1.633,4.754l0.287,1.015h0.088l0.309-1.015l1.699-4.754h1.61l-2.879,7.897
					h-1.566L239.516,432.771z"/>
				<path style="fill:#FFFFFF;" d="M251.097,436.334h3.871c0.022,0.089,0.04,0.195,0.055,0.32c0.015,0.125,0.023,0.25,0.023,0.375
					c0,0.507-0.078,0.985-0.232,1.434c-0.154,0.449-0.397,0.849-0.728,1.202c-0.353,0.375-0.775,0.666-1.268,0.871
					c-0.493,0.206-1.055,0.309-1.688,0.309c-0.574,0-1.114-0.103-1.621-0.309c-0.507-0.206-0.949-0.492-1.324-0.86
					c-0.375-0.367-0.673-0.803-0.894-1.307c-0.22-0.504-0.331-1.053-0.331-1.649c0-0.595,0.11-1.145,0.331-1.649
					c0.221-0.504,0.518-0.939,0.894-1.307c0.375-0.367,0.816-0.654,1.324-0.86c0.507-0.206,1.047-0.309,1.621-0.309
					c0.64,0,1.211,0.11,1.715,0.331c0.504,0.221,0.936,0.526,1.296,0.915l-1.026,1.004c-0.257-0.272-0.544-0.48-0.861-0.623
					c-0.316-0.143-0.694-0.215-1.136-0.215c-0.36,0-0.702,0.065-1.026,0.193c-0.323,0.129-0.607,0.311-0.849,0.546
					c-0.243,0.235-0.436,0.52-0.579,0.855c-0.143,0.335-0.215,0.708-0.215,1.119c0,0.412,0.072,0.785,0.215,1.12
					c0.143,0.335,0.338,0.62,0.585,0.855c0.246,0.235,0.531,0.418,0.854,0.546c0.324,0.129,0.669,0.193,1.037,0.193
					c0.419,0,0.774-0.061,1.064-0.182c0.29-0.121,0.539-0.278,0.745-0.469c0.147-0.132,0.274-0.3,0.38-0.502
					c0.107-0.202,0.189-0.428,0.248-0.678h-2.482V436.334z"/>
			</g>
			<g>
				<path style="fill:#FFFFFF;" d="M297.3,431.299c-0.006-1.224-0.959-2.121-2.189-2.14c-0.924-0.014-0.832,0.12-0.834-0.867
					c-0.003-1.097-0.007-2.194,0.003-3.292c0.003-0.379-0.112-0.691-0.362-0.976c-2.342-2.668-4.678-5.342-7.019-8.011
					c-0.12-0.137-0.275-0.244-0.414-0.366c-6.214,0-12.427,0-18.641,0c-0.794,0.293-1.14,0.868-1.138,1.709
					c0.01,3.748,0.004,7.496,0.004,11.243c0,0.556-0.003,0.589-0.55,0.551c-1.497-0.102-2.516,0.986-2.497,2.492
					c0.044,3.476,0.013,6.953,0.014,10.429c0.001,1.58,0.867,2.443,2.45,2.449c0.582,0.002,0.582,0.002,0.582,0.6
					c0,2.219-0.001,4.438,0.001,6.657c0.001,1.192,0.58,1.771,1.768,1.771c8.013,0.001,16.027,0.001,24.04,0
					c1.168,0,1.755-0.583,1.757-1.745c0.002-2.256,0-4.512,0.001-6.768c0-0.512,0.002-0.511,0.52-0.515
					c0.271-0.002,0.541,0.008,0.809-0.058c0.996-0.246,1.69-1.044,1.694-2.069C297.315,438.696,297.318,434.997,297.3,431.299z
					 M268.85,417.162c5.337,0,10.674,0,16.01,0c0.548,0,0.554,0.007,0.554,0.561c0.001,2.243-0.001,4.486,0.001,6.73
					c0.001,0.811,0.249,1.059,1.06,1.059c1.91,0.001,3.821,0,5.731,0.001c0.458,0,0.479,0.021,0.481,0.483
					c0.003,0.887,0.002,1.775,0,2.662c-0.001,0.477-0.024,0.498-0.504,0.499c-3.895,0.001-7.79,0-11.684,0
					c-3.882,0-7.765,0-11.647,0c-0.55,0-0.552-0.001-0.552-0.561c-0.001-3.624-0.001-7.247,0-10.871
					C268.299,417.166,268.303,417.162,268.85,417.162z M292.135,451.579c-3.883,0.001-7.766,0-11.65,0c-3.871,0-7.742,0-11.613,0
					c-0.572,0-0.574-0.002-0.574-0.579c-0.001-1.997-0.001-3.994,0.001-5.991c0-0.464,0.023-0.486,0.478-0.487
					c7.803-0.001,15.607-0.001,23.41,0c0.478,0,0.499,0.02,0.499,0.503c0.001,1.997,0.001,3.994,0,5.991
					C292.687,451.574,292.682,451.579,292.135,451.579z"/>
			</g>
			<g>
				<path style="fill:#FFFFFF;" d="M272.966,434.183v1.831h3.165v1.412h-3.165v1.831h3.518v1.412h-5.007v-7.897h5.007v1.412H272.966
					z"/>
				<path style="fill:#FFFFFF;" d="M277.852,440.669v-7.897h2.779c0.375,0,0.726,0.061,1.053,0.182
					c0.327,0.121,0.612,0.292,0.855,0.513c0.243,0.221,0.434,0.483,0.574,0.789c0.14,0.305,0.209,0.642,0.209,1.009
					c0,0.375-0.07,0.715-0.209,1.02c-0.14,0.305-0.331,0.568-0.574,0.789c-0.243,0.221-0.528,0.392-0.855,0.513
					c-0.327,0.121-0.678,0.182-1.053,0.182h-1.29v2.901H277.852z M280.653,436.356c0.389,0,0.684-0.111,0.882-0.331
					c0.199-0.22,0.298-0.474,0.298-0.761c0-0.14-0.024-0.276-0.072-0.408c-0.048-0.132-0.121-0.248-0.221-0.347
					c-0.099-0.099-0.222-0.178-0.37-0.237c-0.147-0.059-0.32-0.089-0.518-0.089h-1.312v2.173H280.653z"/>
				<path style="fill:#FFFFFF;" d="M286.797,440.845c-0.338,0-0.662-0.048-0.971-0.143c-0.309-0.095-0.592-0.239-0.849-0.43
					c-0.257-0.191-0.482-0.425-0.673-0.7c-0.191-0.276-0.342-0.597-0.452-0.965l1.401-0.551c0.103,0.397,0.283,0.726,0.541,0.987
					c0.257,0.261,0.595,0.392,1.015,0.392c0.154,0,0.303-0.02,0.447-0.061c0.143-0.04,0.272-0.099,0.386-0.176
					c0.114-0.077,0.204-0.175,0.27-0.292c0.066-0.118,0.1-0.254,0.1-0.408c0-0.147-0.026-0.279-0.077-0.397
					c-0.051-0.117-0.138-0.227-0.259-0.331c-0.121-0.103-0.279-0.202-0.474-0.298c-0.195-0.095-0.436-0.195-0.723-0.298
					l-0.485-0.176c-0.213-0.073-0.428-0.173-0.645-0.298c-0.217-0.125-0.414-0.276-0.59-0.452c-0.176-0.176-0.322-0.384-0.436-0.623
					c-0.114-0.239-0.171-0.509-0.171-0.81c0-0.309,0.061-0.597,0.182-0.866c0.121-0.268,0.294-0.503,0.518-0.706
					c0.224-0.202,0.493-0.36,0.805-0.474c0.312-0.114,0.66-0.171,1.042-0.171c0.397,0,0.741,0.053,1.031,0.16
					c0.29,0.107,0.537,0.243,0.739,0.408c0.202,0.165,0.365,0.348,0.491,0.546c0.125,0.199,0.217,0.386,0.276,0.563l-1.312,0.551
					c-0.074-0.221-0.208-0.419-0.403-0.596c-0.195-0.176-0.462-0.265-0.799-0.265c-0.324,0-0.592,0.075-0.805,0.226
					c-0.213,0.151-0.32,0.348-0.32,0.59c0,0.235,0.103,0.436,0.309,0.601c0.206,0.165,0.533,0.325,0.982,0.48l0.496,0.165
					c0.316,0.111,0.605,0.237,0.866,0.381c0.261,0.143,0.485,0.314,0.673,0.513c0.187,0.199,0.331,0.425,0.43,0.678
					c0.099,0.254,0.149,0.546,0.149,0.877c0,0.412-0.083,0.767-0.248,1.064c-0.165,0.298-0.377,0.542-0.634,0.734
					c-0.258,0.191-0.548,0.335-0.872,0.43C287.422,440.797,287.105,440.845,286.797,440.845z"/>
			</g>
			<g>
				<path style="fill:#FFFFFF;" d="M321.394,439.168l4.004-4.985h-3.827v-1.412h5.559v1.5l-3.96,4.985h4.004v1.412h-5.779V439.168z"
					/>
				<path style="fill:#FFFFFF;" d="M328.409,432.771h1.489v7.897h-1.489V432.771z"/>
				<path style="fill:#FFFFFF;" d="M331.486,440.669v-7.897h2.779c0.375,0,0.726,0.061,1.053,0.182
					c0.327,0.121,0.612,0.292,0.855,0.513s0.434,0.483,0.574,0.789c0.14,0.305,0.209,0.642,0.209,1.009
					c0,0.375-0.07,0.715-0.209,1.02c-0.14,0.305-0.331,0.568-0.574,0.789c-0.243,0.221-0.528,0.392-0.855,0.513
					c-0.327,0.121-0.678,0.182-1.053,0.182h-1.29v2.901H331.486z M334.288,436.356c0.389,0,0.684-0.111,0.882-0.331
					c0.199-0.22,0.298-0.474,0.298-0.761c0-0.14-0.024-0.276-0.072-0.408c-0.048-0.132-0.121-0.248-0.221-0.347
					c-0.099-0.099-0.222-0.178-0.37-0.237c-0.147-0.059-0.32-0.089-0.518-0.089h-1.312v2.173H334.288z"/>
			</g>
		</g>
		<g style="opacity:0.61;">
			<path style="fill:#FFFFFF;" d="M300.133,433.27h9.067v2.242h-9.067V433.27z M300.133,437.136h9.067v2.243h-9.067V437.136z"/>
		</g>
	</g>
	<g style="opacity:0.61;">
		<path style="fill:#FFFFFF;" d="M156.756,478.878h1.607c1.263,0,2.114,0.812,2.114,1.974c0,1.161-0.851,1.973-2.114,1.973h-1.607
			V478.878z M158.34,482.464c1.049,0,1.725-0.665,1.725-1.612c0-0.947-0.677-1.613-1.725-1.613h-1.167v3.225H158.34z"/>
		<path style="fill:#FFFFFF;" d="M165.139,480.851c0-1.15,0.879-2.007,2.075-2.007c1.184,0,2.069,0.851,2.069,2.007
			c0,1.156-0.885,2.007-2.069,2.007C166.019,482.858,165.139,482.002,165.139,480.851z M168.866,480.851
			c0-0.942-0.705-1.635-1.652-1.635c-0.953,0-1.663,0.693-1.663,1.635c0,0.941,0.71,1.635,1.663,1.635
			C168.162,482.486,168.866,481.793,168.866,480.851z"/>
		<path style="fill:#FFFFFF;" d="M179.596,478.878l-1.331,3.947h-0.44l-1.156-3.366l-1.161,3.366h-0.434l-1.331-3.947h0.429
			l1.139,3.394l1.178-3.394h0.389l1.161,3.411l1.156-3.411H179.596z"/>
		<path style="fill:#FFFFFF;" d="M187.731,478.878v3.947h-0.344l-2.537-3.202v3.202h-0.417v-3.947h0.344l2.543,3.203v-3.203H187.731
			z"/>
		<path style="fill:#FFFFFF;" d="M193.093,478.878h0.417v3.586h2.21v0.361h-2.627V478.878z"/>
		<path style="fill:#FFFFFF;" d="M200.061,480.851c0-1.15,0.879-2.007,2.075-2.007c1.184,0,2.069,0.851,2.069,2.007
			c0,1.156-0.885,2.007-2.069,2.007C200.941,482.858,200.061,482.002,200.061,480.851z M203.788,480.851
			c0-0.942-0.705-1.635-1.652-1.635c-0.953,0-1.663,0.693-1.663,1.635c0,0.941,0.71,1.635,1.663,1.635
			C203.083,482.486,203.788,481.793,203.788,480.851z"/>
		<path style="fill:#FFFFFF;" d="M211.636,481.77h-2.199l-0.474,1.054h-0.434l1.804-3.947h0.412l1.804,3.947h-0.44L211.636,481.77z
			 M211.484,481.432l-0.947-2.12l-0.947,2.12H211.484z"/>
		<path style="fill:#FFFFFF;" d="M217.28,478.878h1.607c1.263,0,2.114,0.812,2.114,1.974c0,1.161-0.851,1.973-2.114,1.973h-1.607
			V478.878z M218.864,482.464c1.049,0,1.725-0.665,1.725-1.612c0-0.947-0.677-1.613-1.725-1.613h-1.167v3.225H218.864z"/>
		<path style="fill:#FFFFFF;" d="M234.041,481.77h-2.199l-0.474,1.054h-0.434l1.804-3.947h0.412l1.804,3.947h-0.44L234.041,481.77z
			 M233.889,481.432l-0.947-2.12l-0.947,2.12H233.889z"/>
		<path style="fill:#FFFFFF;" d="M239.685,478.878h0.417v3.586h2.21v0.361h-2.627V478.878z"/>
		<path style="fill:#FFFFFF;" d="M247.082,478.878h0.417v3.586h2.21v0.361h-2.627V478.878z"/>
		<path style="fill:#FFFFFF;" d="M260.449,479.239v1.551h2.041v0.361h-2.041v1.675h-0.417v-3.947h2.706v0.361H260.449z"/>
		<path style="fill:#FFFFFF;" d="M267.678,478.878h0.417v3.947h-0.417V478.878z"/>
		<path style="fill:#FFFFFF;" d="M273.456,478.878h0.417v3.586h2.21v0.361h-2.627V478.878z"/>
		<path style="fill:#FFFFFF;" d="M283.644,482.464v0.361h-2.791v-3.947h2.706v0.361h-2.289v1.404h2.041v0.355h-2.041v1.466H283.644z
			"/>
		<path style="fill:#FFFFFF;" d="M294.672,479.239v1.551h2.041v0.361h-2.041v1.675h-0.417v-3.947h2.706v0.361H294.672z"/>
		<path style="fill:#FFFFFF;" d="M301.5,480.851c0-1.15,0.879-2.007,2.075-2.007c1.184,0,2.069,0.851,2.069,2.007
			c0,1.156-0.885,2.007-2.069,2.007C302.379,482.858,301.5,482.002,301.5,480.851z M305.226,480.851
			c0-0.942-0.705-1.635-1.652-1.635c-0.953,0-1.663,0.693-1.663,1.635c0,0.941,0.71,1.635,1.663,1.635
			C304.522,482.486,305.226,481.793,305.226,480.851z"/>
		<path style="fill:#FFFFFF;" d="M313.351,482.825l-0.902-1.269c-0.102,0.011-0.203,0.017-0.316,0.017h-1.06v1.252h-0.417v-3.947
			h1.477c1.004,0,1.613,0.507,1.613,1.353c0,0.62-0.327,1.054-0.902,1.24l0.964,1.353H313.351z M313.328,480.231
			c0-0.632-0.417-0.992-1.207-0.992h-1.048v1.979h1.048C312.911,481.218,313.328,480.851,313.328,480.231z"/>
		<path style="fill:#FFFFFF;" d="M322.907,478.878v3.947h-0.4v-3.158l-1.551,2.656h-0.197l-1.551-2.639v3.14h-0.4v-3.947h0.344
			l1.714,2.926l1.697-2.926H322.907z"/>
		<path style="fill:#FFFFFF;" d="M330.744,481.77h-2.199l-0.473,1.054h-0.434l1.804-3.947h0.411l1.804,3.947h-0.44L330.744,481.77z
			 M330.592,481.432l-0.947-2.12l-0.947,2.12H330.592z"/>
		<path style="fill:#FFFFFF;" d="M336.957,479.239h-1.387v-0.361h3.192v0.361h-1.387v3.586h-0.417V479.239z"/>
		<path style="fill:#FFFFFF;" d="M343.063,482.346l0.164-0.321c0.282,0.276,0.784,0.479,1.302,0.479c0.739,0,1.06-0.31,1.06-0.699
			c0-1.083-2.43-0.417-2.43-1.877c0-0.581,0.451-1.083,1.455-1.083c0.446,0,0.908,0.13,1.224,0.35l-0.141,0.333
			c-0.338-0.22-0.733-0.327-1.083-0.327c-0.722,0-1.043,0.321-1.043,0.716c0,1.083,2.43,0.429,2.43,1.866
			c0,0.581-0.462,1.077-1.472,1.077C343.937,482.858,343.356,482.65,343.063,482.346z"/>
	</g>
</g>
<g>
</g>
<g id="XMLID_118_">
	<g id="XMLID_121_">
		<path id="XMLID_122_" style="fill:#F4822A;" d="M342.156,173.299c-5.432,5.788-14.642,6.076-20.459,0.548
			c-5.865-5.509-6.086-14.662-0.596-20.469c5.47-5.835,14.623-6.144,20.488-0.635C347.405,158.252,347.664,167.396,342.156,173.299
			 M197.724,140.333c-2.903-2.673-7.422-2.538-10.143,0.307c-2.702,2.884-2.548,7.355,0.298,10.085
			c2.903,2.702,7.422,2.567,10.114-0.298C200.694,147.581,200.55,143.044,197.724,140.333 M233.92,126.565
			c-3.567-3.327-9.124-3.116-12.479,0.394c-3.346,3.557-3.163,9.114,0.404,12.488c3.519,3.307,9.124,3.124,12.489-0.413
			C237.66,135.526,237.487,129.91,233.92,126.565 M272.761,123.729c-4.48-4.23-11.575-4-15.815,0.471
			c-4.259,4.5-4.038,11.595,0.49,15.854c4.519,4.231,11.623,4.038,15.854-0.452C277.52,135.044,277.261,127.997,272.761,123.729
			 M309.535,133.131c-5.124-4.816-13.056-4.538-17.796,0.519c-4.788,5.057-4.634,13.008,0.452,17.824
			c5.086,4.779,13.114,4.529,17.882-0.519C314.832,145.89,314.621,137.89,309.535,133.131 M166.997,164.473
			c-2.192-2.009-5.538-1.904-7.509,0.241c-2.038,2.134-1.952,5.48,0.192,7.507c2.192,2.039,5.538,1.933,7.547-0.211
			C169.237,169.877,169.151,166.492,166.997,164.473 M352.52,295.936c-2.73,2.865-2.615,7.403,0.231,10.143
			c2.942,2.711,7.47,2.567,10.172-0.337c2.673-2.874,2.577-7.412-0.288-10.114C359.711,292.936,355.192,293.052,352.52,295.936
			 M361.653,259.027c-3.298,3.548-3.125,9.124,0.404,12.451c3.586,3.383,9.114,3.163,12.489-0.366
			c3.326-3.537,3.211-9.104-0.394-12.469C370.632,255.316,365.008,255.499,361.653,259.027 M358.836,220.149
			c-4.259,4.518-4.048,11.614,0.481,15.853c4.499,4.268,11.614,4.009,15.854-0.509c4.269-4.451,4.038-11.566-0.5-15.806
			C370.142,215.457,363.076,215.64,358.836,220.149 M345.299,184.133c-4.807,5.057-4.586,13.047,0.519,17.835
			c5.057,4.768,13.037,4.489,17.776-0.548c4.826-5.086,4.586-13.008-0.519-17.835C358.038,178.808,350.068,179.087,345.299,184.133
			 M332.782,327.97c-1.981,2.144-1.875,5.499,0.269,7.527c2.173,2,5.499,1.924,7.47-0.25c2.067-2.124,1.98-5.509-0.202-7.499
			C338.223,325.711,334.839,325.807,332.782,327.97 M178.947,346.592c5.499-5.846,5.23-14.989-0.596-20.507
			c-5.884-5.518-15.027-5.211-20.488,0.606c-5.47,5.894-5.24,14.96,0.606,20.487C164.276,352.697,173.477,352.438,178.947,346.592
			 M147.577,204.026c2.625-2.866,2.557-7.403-0.337-10.086c-2.865-2.73-7.355-2.567-10.076,0.25
			c-2.74,2.875-2.596,7.374,0.298,10.105C140.328,206.987,144.837,206.881,147.577,204.026 M138.366,240.972
			c3.346-3.557,3.173-9.172-0.365-12.498c-3.576-3.365-9.172-3.183-12.489,0.385c-3.278,3.567-3.211,9.094,0.356,12.449
			C129.406,244.664,135.021,244.434,138.366,240.972 M141.183,279.813c4.278-4.49,4.057-11.614-0.433-15.882
			c-4.547-4.268-11.604-4.009-15.863,0.491c-4.23,4.48-4.047,11.603,0.471,15.843C129.868,284.533,136.972,284.303,141.183,279.813
			 M154.739,315.847c4.797-5.057,4.528-13.075-0.529-17.834c-5.057-4.836-13.027-4.471-17.796,0.538
			c-4.74,5.048-4.576,13.017,0.481,17.854C142.02,321.134,150.028,320.874,154.739,315.847 M302.324,359.619
			c2.894,2.711,7.422,2.576,10.114-0.307c2.682-2.837,2.577-7.355-0.317-10.075c-2.846-2.722-7.364-2.587-10.076,0.288
			C299.325,352.399,299.45,356.918,302.324,359.619 M266.128,373.387c3.538,3.337,9.114,3.124,12.469-0.385
			c3.298-3.509,3.211-9.124-0.365-12.449c-3.596-3.355-9.153-3.173-12.498,0.356C262.426,364.426,262.599,370.041,266.128,373.387
			 M227.229,376.184c4.557,4.287,11.614,4.066,15.844-0.433c4.259-4.5,4.057-11.604-0.442-15.834
			c-4.519-4.259-11.643-4.018-15.902,0.442C222.518,364.869,222.73,371.992,227.229,376.184 M190.561,366.83
			c5.076,4.788,13.046,4.538,17.786-0.519c4.749-5.105,4.576-13.066-0.548-17.844c-5.057-4.75-13.066-4.5-17.824,0.577
			C185.235,354.044,185.466,362.042,190.561,366.83 M286.009,167.559c-1.759,5.923-8.018,9.345-13.979,7.577
			c-6.076-1.77-9.412-8.018-7.634-14.008c1.731-5.97,7.96-9.431,13.979-7.692C284.404,155.224,287.826,161.512,286.009,167.559
			 M177.842,194.19c-2.952-0.798-6.028,0.837-6.922,3.807c-0.865,2.923,0.846,6.038,3.807,6.864c2.903,0.876,5.999-0.787,6.893-3.75
			C182.543,198.18,180.764,195.103,177.842,194.19 M197.425,172.673c-3.673-1.076-7.47,1.048-8.537,4.664
			c-1.067,3.682,0.981,7.461,4.682,8.546c3.634,1.077,7.461-1.048,8.537-4.663C203.165,177.587,201.088,173.769,197.425,172.673
			 M222.489,157.483c-4.682-1.346-9.479,1.327-10.854,5.932c-1.384,4.615,1.307,9.47,5.98,10.825
			c4.567,1.355,9.47-1.24,10.816-5.903C229.729,163.733,227.085,158.859,222.489,157.483 M250.274,151.292
			c-5.288-1.576-10.652,1.452-12.219,6.644c-1.538,5.22,1.442,10.653,6.624,12.201c5.24,1.539,10.652-1.49,12.191-6.634
			C258.475,158.282,255.456,152.802,250.274,151.292 M165.497,220.84c-2.202-0.654-4.528,0.635-5.163,2.798
			c-0.654,2.24,0.615,4.577,2.798,5.221c2.23,0.643,4.528-0.644,5.163-2.846C168.968,223.782,167.699,221.504,165.497,220.84
			 M333.984,245.895c-0.885,2.922,0.798,6.066,3.788,6.903c2.971,0.884,6.047-0.809,6.903-3.798
			c0.856-2.885-0.817-6.009-3.769-6.874C337.973,241.27,334.839,242.953,333.984,245.895 M327.552,218.033
			c-1.106,3.711,1.048,7.518,4.672,8.577c3.653,1.086,7.48-1.01,8.518-4.673c1.077-3.643-0.971-7.461-4.634-8.498
			C332.445,212.331,328.6,214.399,327.552,218.033 M312.371,192.979c-1.384,4.692,1.317,9.499,5.903,10.873
			c4.663,1.365,9.46-1.337,10.835-5.951c1.423-4.595-1.259-9.45-5.884-10.806C318.62,185.739,313.804,188.392,312.371,192.979
			 M291.038,173.519c-1.567,5.192,1.471,10.673,6.672,12.191c5.22,1.528,10.691-1.509,12.171-6.682
			c1.538-5.2-1.404-10.671-6.634-12.19C298.037,165.29,292.585,168.329,291.038,173.519 M331.734,273.996
			c-0.625,2.211,0.615,4.557,2.769,5.172c2.25,0.664,4.557-0.586,5.201-2.826c0.663-2.192-0.596-4.518-2.836-5.183
			C334.733,270.554,332.368,271.795,331.734,273.996 M235.68,338.901c1.759-6.009-1.615-12.296-7.662-14.075
			c-5.99-1.72-12.296,1.683-13.988,7.662c-1.779,6.048,1.634,12.268,7.653,14.065C227.642,348.255,233.978,344.833,235.68,338.901
			 M166.036,254.085c0.923-2.932-0.779-6.028-3.721-6.912c-2.961-0.874-6.038,0.856-6.951,3.798
			c-0.913,2.923,0.827,5.999,3.798,6.874C162.103,258.729,165.18,257.076,166.036,254.085 M172.525,281.938
			c1.058-3.653-1.048-7.471-4.653-8.499c-3.721-1.096-7.537,0.98-8.518,4.644c-1.029,3.624,0.942,7.479,4.634,8.555
			C167.603,287.716,171.429,285.61,172.525,281.938 M187.696,307.031c1.346-4.615-1.336-9.547-5.98-10.912
			c-4.644-1.346-9.403,1.317-10.816,5.979c-1.375,4.605,1.24,9.442,5.903,10.806C181.485,314.289,186.302,311.636,187.696,307.031
			 M209.03,326.509c1.509-5.163-1.452-10.671-6.691-12.219c-5.24-1.509-10.652,1.452-12.162,6.7
			c-1.49,5.164,1.433,10.643,6.663,12.162C202.059,334.671,207.501,331.69,209.03,326.509 M322.177,305.761
			c2.99,0.875,6.095-0.817,6.932-3.75c0.865-2.932-0.808-6.076-3.749-6.961c-2.952-0.836-6.066,0.846-6.932,3.807
			C317.553,301.82,319.255,304.925,322.177,305.761 M302.642,327.316c3.605,1.096,7.451-1.02,8.518-4.625
			c1.086-3.7-0.99-7.507-4.615-8.566c-3.653-1.086-7.518,1.059-8.605,4.653C296.893,322.413,299.027,326.22,302.642,327.316
			 M277.578,342.515c4.653,1.355,9.451-1.298,10.845-5.941c1.346-4.577-1.25-9.442-5.922-10.825
			c-4.634-1.385-9.508,1.297-10.883,5.922C270.262,336.305,272.992,341.15,277.578,342.515 M249.803,348.707
			c5.23,1.557,10.71-1.452,12.191-6.624c1.471-5.211-1.423-10.691-6.605-12.201c-5.259-1.548-10.739,1.433-12.248,6.662
			C241.641,341.728,244.611,347.14,249.803,348.707 M226.796,188.509c2.336,4.239,0.75,9.566-3.5,11.873
			c-4.336,2.298-9.595,0.663-11.921-3.596c-2.346-4.25-0.731-9.566,3.538-11.864C219.201,182.615,224.566,184.201,226.796,188.509
			 M183.466,257.133c-2.471,1.346-3.394,4.5-2.057,6.999c1.375,2.538,4.519,3.422,7.009,2.029c2.461-1.27,3.519-4.462,2.077-6.951
			C189.1,256.711,186.042,255.778,183.466,257.133 M182.62,236.04c-2.894,1.539-3.971,5.211-2.423,8.095
			c1.625,2.952,5.269,4.037,8.182,2.461c2.913-1.596,4.028-5.288,2.452-8.172C189.225,235.492,185.591,234.425,182.62,236.04
			 M188.09,215.735c-3.336,1.809-4.576,5.981-2.836,9.307c1.856,3.327,6.038,4.596,9.354,2.788c3.326-1.789,4.624-5.979,2.798-9.335
			C195.541,215.168,191.417,213.938,188.09,215.735 M199.262,198.18c-3.836,2.057-5.249,6.681-3.182,10.508
			c2.067,3.72,6.682,5.153,10.431,3.133c3.826-2.028,5.23-6.759,3.201-10.47C207.703,197.584,202.992,196.113,199.262,198.18
			 M190.715,277.083c-2.134,1.124-2.894,3.73-1.779,5.874c1.173,2.076,3.721,2.865,5.884,1.74c2.067-1.174,2.846-3.779,1.731-5.855
			C195.339,276.785,192.743,275.957,190.715,277.083 M290.413,205.265c1.365,2.509,4.451,3.423,7.037,2.116
			c2.509-1.414,3.48-4.519,2.077-7.047c-1.365-2.5-4.49-3.461-6.941-2.077C289.98,199.66,289.067,202.785,290.413,205.265
			 M272.905,194.114c1.567,2.922,5.307,3.989,8.134,2.393c2.98-1.586,4.028-5.211,2.452-8.124c-1.558-2.913-5.23-4.028-8.124-2.48
			C272.463,187.518,271.329,191.21,272.905,194.114 M252.62,188.701c1.807,3.317,5.97,4.576,9.268,2.739
			c3.423-1.817,4.605-5.961,2.846-9.316c-1.75-3.317-5.951-4.605-9.297-2.73C252.072,181.163,250.899,185.307,252.62,188.701
			 M231.517,189.518c2.029,3.826,6.72,5.181,10.508,3.192c3.74-2.057,5.105-6.74,3.115-10.528c-2-3.739-6.749-5.172-10.499-3.115
			C230.863,181.086,229.517,185.807,231.517,189.518 M303.565,221.042c1.134,2.116,3.769,2.866,5.778,1.731
			c2.077-1.096,2.903-3.683,1.75-5.768c-1.144-2.125-3.673-2.894-5.826-1.846C303.247,216.331,302.421,219.014,303.565,221.042
			 M288.692,303.118c-2.307-4.288-7.614-5.951-11.921-3.568c-4.259,2.27-5.884,7.586-3.509,11.864
			c2.307,4.25,7.634,5.788,11.912,3.586C289.422,312.606,290.99,307.27,288.692,303.118 M209.616,294.609
			c-1.346-2.472-4.461-3.385-6.961-2.068c-2.538,1.307-3.423,4.471-2.105,6.961c1.327,2.529,4.48,3.471,6.989,2.048
			C210.039,300.263,210.943,297.128,209.616,294.609 M227.143,305.761c-1.586-2.893-5.23-4.018-8.133-2.422
			c-2.952,1.624-4.009,5.249-2.432,8.153c1.519,2.922,5.22,4.057,8.124,2.49C227.642,312.327,228.739,308.646,227.143,305.761
			 M247.428,311.184c-1.759-3.318-5.961-4.509-9.354-2.779c-3.365,1.807-4.509,5.999-2.788,9.316
			c1.875,3.385,6.018,4.605,9.345,2.827C248.044,318.778,249.293,314.558,247.428,311.184 M268.55,310.328
			c-2.019-3.74-6.691-5.144-10.537-3.125c-3.759,2-5.067,6.682-3.009,10.479c1.961,3.74,6.624,5.221,10.402,3.116
			C269.204,318.817,270.56,314.087,268.55,310.328 M316.496,242.828c2.529-1.452,3.509-4.605,2.192-7.067
			c-1.384-2.5-4.519-3.422-6.98-2.085c-2.567,1.336-3.49,4.518-2.105,7.018C310.919,243.193,314.102,244.106,316.496,242.828
			 M317.486,263.873c2.923-1.587,3.961-5.24,2.336-8.144c-1.519-2.942-5.124-4.009-8.095-2.432c-2.923,1.605-3.971,5.22-2.452,8.2
			C310.833,264.382,314.621,265.421,317.486,263.873 M311.977,284.188c3.403-1.846,4.605-5.981,2.855-9.365
			c-1.807-3.307-5.98-4.604-9.345-2.787c-3.375,1.778-4.557,6.048-2.827,9.383C304.526,284.697,308.679,285.975,311.977,284.188
			 M300.882,301.666c3.721-1.962,5.143-6.74,3.105-10.471c-2.057-3.73-6.711-5.191-10.479-3.133
			c-3.759,2.057-5.124,6.749-3.125,10.488C292.374,302.291,297.075,303.723,300.882,301.666 M450.967,272.487
			c-12.421,0-22.487-10.075-22.487-22.526c0-12.488,10.066-22.448,22.506-22.448c12.402,0,22.478,9.96,22.478,22.478
			C473.464,262.412,463.389,272.487,450.967,272.487 M362.653,78.495c1.442-6.769-2.855-13.297-9.537-14.729
			c-6.72-1.442-13.306,2.807-14.738,9.546c-1.423,6.711,2.846,13.277,9.556,14.729C354.644,89.465,361.239,85.176,362.653,78.495
			 M406.964,110.202c1.327-8.229-4.317-15.863-12.45-17.18c-8.201-1.298-15.921,4.268-17.248,12.498
			c-1.298,8.21,4.297,15.931,12.489,17.219C397.965,124.036,405.714,118.422,406.964,110.202 M442.68,151.447
			c1.058-10.336-6.365-19.517-16.652-20.613c-10.306-1.067-19.565,6.355-20.613,16.71c-1.096,10.296,6.422,19.506,16.652,20.602
			C432.383,169.223,441.594,161.733,442.68,151.447 M464.85,199.036c0.567-11.488-8.21-21.132-19.565-21.718
			c-11.402-0.624-21.132,8.086-21.757,19.546c-0.596,11.421,8.162,21.141,19.574,21.747
			C454.477,219.197,464.235,210.438,464.85,199.036 M259.023,49.018c0-5.009-4.038-9.018-8.999-9.018
			c-4.999,0-9.047,4.009-9.047,9.018c0,4.999,4.048,9.027,9.047,9.027C254.985,58.045,259.023,54.017,259.023,49.018
			 M347.934,411.939c-6.711,1.422-10.998,8.027-9.595,14.729c1.471,6.749,8.057,10.999,14.777,9.575
			c6.682-1.432,10.96-7.999,9.537-14.767C361.239,414.804,354.644,410.497,347.934,411.939 M389.755,377.251
			c-8.191,1.279-13.787,9.008-12.489,17.21c1.308,8.229,9.047,13.796,17.19,12.508c8.191-1.318,13.806-8.971,12.508-17.219
			C405.666,381.54,397.965,375.963,389.755,377.251 M422.068,331.844c-10.249,1.068-17.748,10.306-16.652,20.594
			c1.048,10.363,10.306,17.756,20.584,16.68c10.316-1.087,17.738-10.258,16.68-20.604
			C441.594,338.219,432.383,330.738,422.068,331.844 M443.103,281.37c-11.412,0.606-20.17,10.316-19.574,21.709
			c0.625,11.479,10.354,20.141,21.757,19.554c11.354-0.586,20.132-10.229,19.526-21.699
			C464.235,289.542,454.477,280.774,443.103,281.37 M250.024,441.935c-4.999,0-9.047,4.028-9.047,9.037s4.048,9.028,9.047,9.028
			c4.961,0,8.999-4.02,8.999-9.047C259.023,445.963,254.985,441.935,250.024,441.935 M49.042,272.487
			c12.383,0,22.439-10.075,22.439-22.526c0-12.488-10.056-22.448-22.439-22.448c-12.402,0-22.507,9.96-22.507,22.478
			C26.536,262.412,36.64,272.487,49.042,272.487 M152.057,88.041c6.73-1.452,10.989-8.018,9.585-14.729
			c-1.413-6.739-8.018-10.988-14.748-9.557c-6.682,1.442-10.97,7.97-9.566,14.739C138.78,85.176,145.346,89.465,152.057,88.041
			 M110.245,122.729c8.21-1.307,13.806-9.008,12.498-17.238c-1.298-8.22-8.989-13.777-17.219-12.469
			c-8.21,1.298-13.777,8.931-12.469,17.18C94.363,118.422,102.054,124.036,110.245,122.729 M77.923,168.146
			c10.268-1.096,17.786-10.306,16.661-20.602c-1.058-10.355-10.335-17.787-20.584-16.71c-10.306,1.096-17.786,10.277-16.68,20.613
			C58.416,161.733,67.568,169.223,77.923,168.146 M56.897,218.61c11.402-0.606,20.17-10.325,19.565-21.747
			c-0.558-11.46-10.316-20.171-21.757-19.546c-11.316,0.587-20.151,10.23-19.565,21.718
			C35.784,210.438,45.514,219.197,56.897,218.61 M137.347,421.496c-1.423,6.748,2.865,13.316,9.547,14.747
			c6.701,1.424,13.335-2.826,14.748-9.575c1.404-6.701-2.855-13.306-9.566-14.729C145.346,410.497,138.78,414.804,137.347,421.496
			 M93.075,389.75c-1.327,8.248,4.269,15.901,12.45,17.219c8.23,1.287,15.921-4.279,17.248-12.508
			c1.279-8.201-4.317-15.912-12.527-17.21C102.054,375.963,94.363,381.549,93.075,389.75 M57.32,348.515
			c-1.106,10.345,6.374,19.498,16.68,20.604c10.287,1.076,19.526-6.317,20.584-16.68c1.125-10.288-6.393-19.526-16.661-20.594
			C67.568,330.738,58.416,338.219,57.32,348.515 M35.14,300.935c-0.548,11.469,8.249,21.113,19.565,21.699
			c11.441,0.606,21.199-8.076,21.757-19.554c0.615-11.393-8.162-21.104-19.565-21.709C45.514,280.774,35.784,289.542,35.14,300.935
			 M299.488,434.753c-5.134,1.385-8.21,6.701-6.855,11.884c1.404,5.172,6.74,8.229,11.893,6.835
			c5.192-1.394,8.278-6.681,6.884-11.854C310.006,436.417,304.699,433.359,299.488,434.753 M200.464,434.753
			c-5.124-1.374-10.441,1.664-11.854,6.864c-1.375,5.173,1.692,10.46,6.855,11.854c5.172,1.394,10.518-1.663,11.902-6.844
			C208.76,441.454,205.665,436.137,200.464,434.753 M311.41,58.363c1.394-5.183-1.692-10.46-6.884-11.854
			c-5.153-1.394-10.489,1.654-11.883,6.846c-1.365,5.191,1.711,10.498,6.884,11.873C304.699,66.631,310.006,63.554,311.41,58.363
			 M207.366,53.354c-1.404-5.192-6.73-8.249-11.902-6.846c-5.163,1.385-8.23,6.672-6.855,11.844c1.413,5.201,6.73,8.24,11.854,6.875
			C205.665,63.852,208.76,58.536,207.366,53.354 M401.061,203.996c-8.912,3.836-19.247-0.279-23.103-9.201
			c-3.874-8.94,0.26-19.219,9.201-23.074c8.864-3.835,19.199,0.222,23.055,9.162C414.059,189.787,409.944,200.132,401.061,203.996
			 M277.732,92.224c-1.058-5.298-6.163-8.672-11.393-7.605c-5.259,1-8.653,6.096-7.614,11.392c1.048,5.221,6.182,8.634,11.441,7.605
			C275.367,102.53,278.78,97.444,277.732,92.224 M319.341,101.26c-1.644-6.326-8.037-10.085-14.325-8.47
			c-6.249,1.596-10.047,7.97-8.432,14.267c1.596,6.288,8.018,10.095,14.296,8.46C317.159,113.932,320.918,107.53,319.341,101.26
			 M357.692,119.768c-2.423-7.759-10.652-12.036-18.334-9.586c-7.72,2.366-12.056,10.567-9.633,18.315
			c2.404,7.72,10.662,12.008,18.334,9.605C355.817,135.689,360.086,127.478,357.692,119.768 M388.274,147.033
			c-3.125-8.412-12.412-12.603-20.728-9.537c-8.374,3.105-12.671,12.334-9.566,20.747c3.125,8.375,12.392,12.643,20.737,9.547
			C387.063,164.714,391.37,155.407,388.274,147.033 M194.359,103.145c-1.558-3.624-5.711-5.24-9.278-3.711
			c-3.596,1.539-5.269,5.672-3.74,9.287c1.586,3.548,5.768,5.173,9.297,3.653C194.224,110.837,195.907,106.683,194.359,103.145
			 M370.305,335.825c-4.403,3.096-5.393,9.133-2.317,13.507c3.125,4.394,9.133,5.403,13.537,2.308
			c4.336-3.087,5.384-9.095,2.269-13.528C380.708,333.777,374.651,332.71,370.305,335.825 M389.582,298.002
			c-5.49,3.49-7.143,10.758-3.653,16.2c3.49,5.509,10.729,7.124,16.209,3.644c5.451-3.452,7.124-10.682,3.634-16.18
			C402.291,296.195,395.042,294.561,389.582,298.002 M398.677,255.479c-7.028,3.923-9.556,12.864-5.586,19.939
			c3.971,7.038,12.902,9.518,19.911,5.548c7.076-3.942,9.556-12.816,5.643-19.91C414.665,254.009,405.733,251.509,398.677,255.479
			 M398.148,212.794c-7.97,3.941-11.258,13.623-7.316,21.612c3.999,8.057,13.652,11.249,21.632,7.297
			c7.999-3.932,11.287-13.575,7.278-21.622C415.809,212.129,406.127,208.842,398.148,212.794 M309.372,387.615
			c-3.557,1.557-5.24,5.692-3.682,9.258c1.538,3.596,5.682,5.23,9.239,3.692c3.586-1.557,5.269-5.701,3.73-9.278
			C317.092,387.721,312.958,386.058,309.372,387.615 M112.879,328.268c8.903-3.836,12.989-14.18,9.124-23.103
			c-3.836-8.931-14.171-12.988-23.035-9.152c-8.883,3.826-13.037,14.123-9.181,23.083
			C93.632,327.989,103.977,332.094,112.879,328.268 M129.685,164.155c4.365-3.105,5.413-9.123,2.336-13.517
			c-3.125-4.393-9.143-5.383-13.508-2.278c-4.365,3.087-5.422,9.105-2.298,13.517C119.311,166.223,125.359,167.261,129.685,164.155
			 M110.476,201.968c5.49-3.471,7.095-10.758,3.644-16.23c-3.48-5.509-10.748-7.085-16.248-3.624
			c-5.422,3.481-7.105,10.671-3.605,16.2C97.728,203.795,104.958,205.429,110.476,201.968 M101.323,244.53
			c7.047-3.951,9.499-12.902,5.576-19.94c-3.951-7.057-12.883-9.546-19.92-5.576c-7.057,3.942-9.556,12.854-5.595,19.921
			C85.345,245.971,94.267,248.491,101.323,244.53 M101.881,287.197c7.999-3.951,11.248-13.652,7.297-21.622
			c-3.999-8.047-13.633-11.277-21.651-7.307c-7.941,3.951-11.268,13.604-7.326,21.612
			C84.172,287.899,93.901,291.148,101.881,287.197 M222.278,407.795c1.048,5.268,6.163,8.672,11.431,7.605
			c5.211-1.039,8.624-6.153,7.557-11.431c-1.057-5.221-6.163-8.614-11.373-7.595C224.633,397.441,221.22,402.555,222.278,407.795
			 M180.726,398.729c1.577,6.326,7.96,10.075,14.229,8.47c6.297-1.624,10.114-7.96,8.508-14.267
			c-1.615-6.278-8.018-10.075-14.325-8.47C182.879,386.058,179.111,392.432,180.726,398.729 M142.318,380.212
			c2.452,7.779,10.576,12.008,18.324,9.586c7.71-2.385,12.027-10.556,9.652-18.287c-2.423-7.72-10.633-12.036-18.353-9.633
			C144.202,364.282,139.924,372.483,142.318,380.212 M111.716,352.927c3.125,8.432,12.441,12.634,20.747,9.528
			c8.364-3.087,12.7-12.316,9.556-20.728c-3.067-8.345-12.412-12.634-20.737-9.528C112.918,335.286,108.649,344.593,111.716,352.927
			 M342.607,367.156c-3.25,2.605-3.817,7.365-1.211,10.625c2.596,3.297,7.326,3.816,10.595,1.221
			c3.317-2.567,3.865-7.316,1.288-10.643C350.674,365.109,345.924,364.551,342.607,367.156 M271.617,397.768
			c-4.105,0.596-6.951,4.441-6.365,8.585c0.615,4.144,4.461,6.999,8.576,6.375c4.124-0.616,7.047-4.423,6.403-8.557
			C279.635,400.018,275.799,397.142,271.617,397.768 M234.786,93.618c-0.625-4.125-4.471-6.981-8.614-6.355
			c-4.115,0.596-6.97,4.413-6.355,8.575c0.586,4.144,4.422,6.979,8.566,6.374C232.488,101.597,235.382,97.771,234.786,93.618
			 M158.623,122.199c-2.577-3.297-7.345-3.826-10.643-1.239c-3.269,2.605-3.836,7.335-1.259,10.623
			c2.625,3.298,7.403,3.846,10.643,1.259C160.652,130.219,161.248,125.488,158.623,122.199"/>
	</g>
</g>
</svg>
